<svg width="26" height="26" viewBox="0 0 26 26" fill="none" xmlns="http://www.w3.org/2000/svg">
<path d="M5.39826 7.79682C6.70736 7.79682 7.76859 6.73558 7.76859 5.42649C7.76859 4.11739 6.70736 3.05615 5.39826 3.05615C4.08916 3.05615 3.02792 4.11739 3.02792 5.42649C3.02792 6.73558 4.08916 7.79682 5.39826 7.79682Z" fill="#D3E97A"/>
<path d="M10.0067 9.59307V22.7436H14.0898V16.2404C14.0898 14.5244 14.4127 12.8626 16.5403 12.8626C18.6387 12.8626 18.6647 14.8245 18.6647 16.3487V22.7447H22.75V15.533C22.75 11.9905 21.9873 9.26807 17.8468 9.26807C15.8589 9.26807 14.5264 10.359 13.9815 11.3914H13.9262V9.59307H10.0067ZM3.35291 9.59307H7.44249V22.7436H3.35291V9.59307Z" fill="#D3E97A"/>
</svg>
